<?xml version="1.0" standalone="no"?>
<!DOCTYPE svg PUBLIC "-//W3C//DTD SVG 20010904//EN"
 "http://www.w3.org/TR/2001/REC-SVG-20010904/DTD/svg10.dtd">
<svg version="1.0" xmlns="http://www.w3.org/2000/svg"
 width="200.000000pt" height="200.000000pt" viewBox="0 0 200.000000 200.000000"
 preserveAspectRatio="xMidYMid meet">
<metadata>
Created by potrace 1.14, written by Peter Selinger 2001-2017
</metadata>
<g transform="translate(0.000000,200.000000) scale(0.100000,-0.100000)"
fill="#000000" stroke="none">
<path d="M284 1846 c-66 -66 -39 -132 92 -218 l63 -41 -40 -46 c-89 -101 -149
-256 -149 -386 0 -84 33 -205 77 -284 20 -36 69 -98 110 -139 40 -40 73 -75
73 -77 0 -3 -6 -5 -13 -5 -7 0 -32 -16 -54 -35 -109 -93 -93 -279 29 -348 31
-18 38 -28 38 -53 0 -18 9 -42 19 -55 19 -24 23 -24 208 -26 234 -3 292 -3
526 0 185 2 189 2 208 26 10 13 19 37 19 55 0 26 6 35 35 50 37 20 72 62 93
109 18 41 14 126 -7 173 -18 41 -84 104 -108 104 -7 0 -13 2 -13 5 0 2 33 37
73 77 41 41 90 103 110 139 44 79 77 200 77 284 0 130 -60 285 -149 386 l-40
46 63 41 c131 86 158 152 92 218 l-34 34 -682 0 -682 0 -34 -34z m1381 -22
c23 -9 37 -51 26 -73 -17 -32 -154 -118 -297 -188 -168 -82 -242 -147 -296
-262 l-33 -71 -65 1 -65 0 -35 72 c-34 70 -64 95 -76 63 -3 -8 9 -45 27 -82
27 -54 31 -68 19 -72 -8 -3 -28 -18 -43 -33 -25 -26 -28 -33 -21 -74 l6 -45
-58 0 c-74 0 -128 24 -175 77 -48 53 -63 101 -56 176 6 65 38 122 89 160 l28
21 67 -46 c67 -46 93 -51 93 -18 0 29 -64 72 -210 143 -173 83 -280 159 -280
198 0 62 -32 59 685 59 359 0 661 -3 670 -6z m-1127 -292 l33 -18 -27 -24
c-51 -48 -78 -117 -78 -200 -1 -93 24 -148 93 -213 62 -58 137 -82 223 -73 55
5 62 4 96 -24 71 -56 170 -57 242 -2 32 24 43 27 120 27 73 0 92 4 135 27 172
91 213 305 87 450 l-32 35 42 19 41 18 47 -52 c87 -97 130 -211 130 -347 0
-141 -48 -260 -149 -367 l-59 -63 -24 22 c-30 29 -171 54 -190 35 -25 -25 5
-46 73 -55 65 -8 89 -20 89 -43 0 -10 -15 -14 -57 -14 -82 0 -133 -17 -170
-57 -28 -29 -33 -42 -33 -83 0 -36 6 -55 24 -77 13 -15 27 -48 31 -73 11 -66
71 -123 148 -140 50 -12 57 -16 57 -37 0 -24 -1 -24 -62 -16 -85 11 -254 8
-300 -5 l-38 -10 0 268 c0 304 -9 276 92 287 66 7 94 22 85 47 -8 20 -49 21
-140 1 -58 -12 -76 -12 -135 0 -129 28 -327 16 -396 -24 l-28 -16 -53 58
c-190 209 -195 501 -10 715 41 47 46 48 93 24z m878 -87 c89 -92 86 -234 -7
-322 -46 -43 -97 -63 -165 -63 l-56 0 6 45 c7 41 4 48 -21 74 -15 15 -35 30
-43 33 -20 6 31 109 84 167 40 43 132 111 150 111 5 0 29 -20 52 -45z m-303
-286 c61 -28 11 -135 -74 -160 -78 -24 -165 30 -176 108 -5 36 -3 41 23 51 16
6 38 13 49 16 33 8 149 -2 178 -15z m-193 -440 l50 -11 0 -265 0 -265 -52 9
c-59 9 -215 11 -293 3 -46 -5 -50 -3 -53 17 -3 19 1 23 25 23 41 0 129 46 154
81 12 17 23 49 26 72 3 23 14 51 25 63 27 30 38 78 27 117 -18 66 -90 107
-195 110 -61 2 -82 15 -52 33 38 24 249 32 338 13z m-189 -126 c51 -30 57 -75
18 -119 -11 -11 -23 -42 -28 -69 -22 -117 -162 -153 -250 -63 -90 92 -45 236
84 269 43 11 145 0 176 -18z m752 6 c91 -47 120 -150 67 -237 -22 -36 -86 -72
-129 -72 -71 0 -141 52 -141 105 0 19 -13 51 -31 78 -46 70 -26 115 64 138 40
10 140 3 170 -12z"/>
<path d="M672 1300 c-41 -17 -56 -90 -18 -90 9 0 20 9 26 20 6 11 17 20 24 20
8 0 16 -9 19 -20 6 -22 42 -28 50 -7 17 45 -50 97 -101 77z"/>
<path d="M1270 1297 c-28 -14 -51 -53 -43 -73 8 -21 44 -17 50 6 7 26 27 25
45 -2 9 -14 20 -19 31 -15 22 8 22 39 0 65 -24 27 -53 34 -83 19z"/>
</g>
</svg>
